<?xml version="1.0" encoding="UTF-8"?>
<svg xmlns="http://www.w3.org/2000/svg" xmlns:xlink="http://www.w3.org/1999/xlink" width="24px" height="16px" viewBox="0 0 24 16" version="1.1">
<g id="surface1">
<path style=" stroke:none;fill-rule:nonzero;fill:rgb(0%,0%,0%);fill-opacity:1;" d="M 10.78125 4.90625 C 10.453125 4.9375 10.113281 5.054688 9.820312 5.246094 C 9.667969 5.347656 9.382812 5.632812 9.273438 5.800781 C 9.160156 5.976562 9.078125 6.132812 9.015625 6.292969 C 8.984375 6.367188 8.957031 6.425781 8.945312 6.429688 C 8.472656 6.5625 8.15625 6.734375 7.882812 7.007812 C 7.625 7.261719 7.46875 7.539062 7.378906 7.898438 C 7.339844 8.058594 7.335938 8.09375 7.335938 8.375 C 7.335938 8.710938 7.359375 8.851562 7.457031 9.09375 C 7.671875 9.640625 8.144531 10.066406 8.6875 10.203125 C 8.90625 10.253906 9.0625 10.265625 9.628906 10.265625 L 10.171875 10.265625 L 10.144531 10.308594 C 10.109375 10.355469 9.765625 10.726562 9.371094 11.148438 C 9.121094 11.414062 9.074219 11.484375 9.136719 11.484375 C 9.179688 11.484375 9.269531 11.417969 9.53125 11.1875 C 9.664062 11.074219 9.847656 10.914062 9.9375 10.835938 C 10.078125 10.714844 10.34375 10.480469 10.472656 10.363281 L 10.515625 10.324219 L 10.628906 10.359375 C 10.789062 10.40625 11.019531 10.539062 11.144531 10.652344 C 11.234375 10.734375 11.257812 10.75 11.304688 10.75 C 11.457031 10.75 11.539062 10.613281 11.476562 10.476562 C 11.441406 10.40625 11.242188 10.257812 11.03125 10.148438 L 10.863281 10.0625 L 11.117188 9.8125 C 11.253906 9.675781 11.375 9.5625 11.382812 9.5625 C 11.394531 9.5625 11.609375 9.773438 11.859375 10.027344 C 12.363281 10.535156 12.492188 10.640625 12.757812 10.765625 C 13.015625 10.890625 13.171875 10.921875 13.484375 10.921875 C 13.871094 10.925781 14.148438 10.8125 14.394531 10.550781 C 14.507812 10.429688 14.589844 10.277344 14.625 10.125 C 14.652344 10.011719 14.652344 9.796875 14.625 9.6875 C 14.578125 9.492188 14.441406 9.277344 14.296875 9.1875 L 14.21875 9.136719 L 14.3125 9.039062 C 14.410156 8.929688 14.5 8.761719 14.539062 8.617188 C 14.554688 8.566406 14.570312 8.445312 14.574219 8.351562 C 14.582031 8.207031 14.578125 8.15625 14.546875 8.046875 C 14.472656 7.742188 14.277344 7.460938 13.992188 7.242188 C 13.878906 7.15625 13.875 7.148438 13.902344 7.125 C 14.375 6.742188 14.761719 6.410156 14.921875 6.25 C 15.398438 5.78125 15.542969 5.394531 15.316406 5.222656 C 15.269531 5.1875 15.242188 5.179688 15.164062 5.179688 C 15.046875 5.179688 15 5.207031 14.734375 5.417969 C 14.433594 5.65625 14.359375 5.730469 13.847656 6.335938 C 13.390625 6.871094 13.367188 6.894531 13.359375 6.851562 C 13.351562 6.824219 13.332031 6.730469 13.3125 6.640625 C 13.164062 5.925781 12.632812 5.320312 11.921875 5.046875 C 11.609375 4.929688 11.15625 4.871094 10.78125 4.90625 Z M 11.421875 5.304688 C 12.191406 5.441406 12.804688 6.046875 12.929688 6.796875 C 12.960938 6.976562 12.957031 7.222656 12.921875 7.308594 C 12.90625 7.335938 12.742188 7.523438 12.554688 7.726562 L 12.210938 8.09375 L 12.179688 8.054688 C 12.164062 8.035156 12.125 7.984375 12.09375 7.945312 C 11.910156 7.695312 11.609375 7.359375 11.398438 7.167969 C 10.890625 6.710938 10.257812 6.4375 9.601562 6.398438 C 9.507812 6.390625 9.429688 6.386719 9.425781 6.382812 C 9.425781 6.382812 9.449219 6.332031 9.476562 6.269531 C 9.652344 5.886719 9.976562 5.566406 10.332031 5.414062 C 10.648438 5.277344 11.042969 5.238281 11.421875 5.304688 Z M 15.058594 5.59375 C 15.03125 5.800781 14.800781 6.070312 14.445312 6.316406 C 14.324219 6.398438 14.308594 6.394531 14.34375 6.285156 C 14.421875 6.042969 14.730469 5.675781 14.945312 5.570312 C 15.054688 5.515625 15.070312 5.515625 15.058594 5.59375 Z M 9.710938 6.78125 C 10 6.816406 10.335938 6.925781 10.59375 7.070312 C 10.980469 7.289062 11.3125 7.597656 11.761719 8.160156 C 11.859375 8.28125 11.945312 8.390625 11.949219 8.402344 C 11.957031 8.425781 11.914062 8.472656 11.578125 8.824219 C 11.445312 8.964844 11.324219 9.078125 11.316406 9.078125 C 11.304688 9.078125 11.1875 9.046875 11.058594 9.007812 C 10.179688 8.742188 9.898438 8.609375 9.628906 8.320312 C 9.394531 8.070312 9.273438 7.78125 9.242188 7.410156 C 9.230469 7.277344 9.257812 6.960938 9.289062 6.855469 C 9.304688 6.796875 9.3125 6.789062 9.359375 6.78125 C 9.445312 6.765625 9.5625 6.765625 9.710938 6.78125 Z M 8.855469 6.925781 C 8.84375 6.960938 8.835938 7.125 8.835938 7.289062 C 8.835938 7.554688 8.84375 7.605469 8.878906 7.757812 C 8.980469 8.1875 9.210938 8.53125 9.578125 8.789062 C 9.851562 8.984375 10.085938 9.085938 10.683594 9.28125 L 11.035156 9.394531 L 10.773438 9.660156 C 10.625 9.808594 10.507812 9.929688 10.507812 9.929688 C 10.507812 9.933594 10.453125 9.925781 10.382812 9.914062 C 10.304688 9.902344 10.03125 9.894531 9.667969 9.890625 C 8.917969 9.890625 8.761719 9.867188 8.5 9.722656 C 8.140625 9.527344 7.882812 9.1875 7.769531 8.757812 C 7.730469 8.605469 7.730469 8.199219 7.773438 8.023438 C 7.890625 7.511719 8.234375 7.113281 8.734375 6.902344 C 8.871094 6.84375 8.875 6.84375 8.855469 6.925781 Z M 13.710938 7.515625 C 13.878906 7.640625 14 7.78125 14.082031 7.945312 C 14.15625 8.089844 14.179688 8.199219 14.167969 8.367188 C 14.15625 8.558594 14.117188 8.664062 13.996094 8.789062 C 13.84375 8.953125 13.699219 9.015625 13.484375 9.015625 C 13.183594 9.015625 12.894531 8.875 12.617188 8.59375 L 12.507812 8.484375 L 13.039062 7.953125 C 13.632812 7.359375 13.5625 7.40625 13.710938 7.515625 Z M 12.640625 9.109375 C 12.972656 9.34375 13.335938 9.441406 13.71875 9.390625 L 13.875 9.371094 L 13.949219 9.414062 C 14.0625 9.480469 14.152344 9.570312 14.199219 9.671875 C 14.238281 9.75 14.242188 9.773438 14.242188 9.914062 C 14.242188 10.054688 14.238281 10.078125 14.195312 10.164062 C 14.113281 10.335938 13.941406 10.46875 13.726562 10.523438 C 13.609375 10.554688 13.339844 10.554688 13.203125 10.523438 C 13.054688 10.492188 12.875 10.414062 12.734375 10.320312 C 12.609375 10.242188 12.378906 10.015625 11.9375 9.546875 L 11.675781 9.273438 L 11.953125 9.007812 L 12.226562 8.738281 L 12.382812 8.890625 C 12.46875 8.972656 12.585938 9.070312 12.640625 9.109375 Z M 12.640625 9.109375 "/>
</g>
</svg>
