<?xml version="1.0" encoding="UTF-8"?>
<svg xmlns="http://www.w3.org/2000/svg" xmlns:xlink="http://www.w3.org/1999/xlink" width="250px" height="150px" viewBox="0 0 250 150" version="1.1">
<g id="surface1">
<path style=" stroke:none;fill-rule:nonzero;fill:rgb(0%,0%,0%);fill-opacity:1;" d="M 108.535156 4.996094 C 101.070312 5.628906 93.285156 8.191406 86.605469 12.253906 C 83.105469 14.421875 76.644531 20.515625 74.144531 24.078125 C 71.5 27.84375 69.644531 31.105469 68.179688 34.570312 C 67.535156 36.101562 66.855469 37.398438 66.644531 37.464844 C 55.820312 40.265625 48.570312 43.925781 42.320312 49.789062 C 36.464844 55.21875 32.894531 61.113281 30.820312 68.773438 C 29.894531 72.167969 29.820312 72.902344 29.820312 78.929688 C 29.855469 86.089844 30.394531 89.054688 32.570312 94.25 C 37.464844 105.90625 48.320312 114.996094 60.75 117.863281 C 65.75 118.996094 69.285156 119.226562 82.25 119.226562 L 94.679688 119.226562 L 94 120.125 C 93.179688 121.160156 85.394531 129.085938 76.355469 138.078125 C 70.644531 143.707031 69.535156 145.203125 71 145.203125 C 71.964844 145.203125 74 143.804688 80 138.910156 C 83.035156 136.445312 87.214844 133.046875 89.285156 131.417969 C 92.535156 128.785156 98.570312 123.789062 101.5 121.292969 L 102.464844 120.492188 L 105.070312 121.226562 C 108.75 122.226562 114 125.023438 116.855469 127.453125 C 118.894531 129.21875 119.5 129.550781 120.570312 129.550781 C 124.035156 129.550781 125.929688 126.652344 124.429688 123.691406 C 123.644531 122.191406 119.105469 119.09375 114.25 116.730469 L 110.464844 114.929688 L 116.214844 109.570312 C 119.394531 106.636719 122.144531 104.242188 122.355469 104.242188 C 122.570312 104.242188 127.464844 108.703125 133.25 114.132812 C 144.75 124.988281 147.644531 127.1875 153.75 129.882812 C 159.644531 132.515625 163.25 133.214844 170.394531 133.25 C 179.179688 133.28125 185.5 130.851562 191.144531 125.289062 C 193.714844 122.722656 195.644531 119.460938 196.464844 116.230469 C 197.070312 113.832031 197.070312 109.203125 196.464844 106.90625 C 195.355469 102.707031 192.214844 98.179688 188.964844 96.246094 L 187.179688 95.148438 L 189.25 93.050781 C 191.535156 90.71875 193.605469 87.15625 194.5 84.09375 C 194.785156 82.992188 195.144531 80.429688 195.25 78.429688 C 195.429688 75.367188 195.320312 74.300781 194.679688 71.96875 C 192.929688 65.410156 188.5 59.414062 181.929688 54.75 C 179.355469 52.917969 179.25 52.785156 179.929688 52.320312 C 190.75 44.128906 199.535156 37.066406 203.25 33.636719 C 214.105469 23.613281 217.429688 15.417969 212.214844 11.722656 C 211.144531 10.957031 210.570312 10.824219 208.785156 10.824219 C 206.070312 10.824219 205 11.390625 198.929688 15.886719 C 192.035156 20.980469 190.355469 22.578125 178.644531 35.433594 C 168.179688 46.890625 167.679688 47.359375 167.464844 46.425781 C 167.320312 45.890625 166.855469 43.894531 166.429688 41.960938 C 163 26.742188 150.929688 13.855469 134.644531 8.027344 C 127.535156 5.460938 117.144531 4.261719 108.535156 4.996094 Z M 123.214844 13.519531 C 140.785156 16.417969 154.820312 29.339844 157.679688 45.261719 C 158.394531 49.15625 158.285156 54.386719 157.464844 56.183594 C 157.179688 56.75 153.429688 60.78125 149.105469 65.109375 L 141.25 72.96875 L 140.535156 72.136719 C 140.144531 71.703125 139.25 70.605469 138.570312 69.738281 C 134.394531 64.441406 127.5 57.25 122.679688 53.1875 C 111.105469 43.429688 96.570312 37.632812 81.605469 36.765625 C 79.464844 36.667969 77.644531 36.535156 77.605469 36.5 C 77.570312 36.5 78.105469 35.367188 78.75 34.035156 C 82.785156 25.910156 90.179688 19.050781 98.320312 15.785156 C 105.5 12.921875 114.535156 12.089844 123.214844 13.519531 Z M 206.320312 19.683594 C 205.679688 24.078125 200.464844 29.839844 192.355469 35.035156 C 189.570312 36.832031 189.214844 36.699219 190.035156 34.371094 C 191.820312 29.207031 198.855469 21.414062 203.714844 19.148438 C 206.25 17.949219 206.570312 18.015625 206.320312 19.683594 Z M 84.105469 44.960938 C 90.75 45.691406 98.394531 48.023438 104.320312 51.121094 C 113.144531 55.785156 120.679688 62.34375 131 74.367188 C 133.25 76.964844 135.144531 79.296875 135.25 79.53125 C 135.464844 79.996094 134.5 81.027344 126.785156 88.488281 C 123.714844 91.484375 121 93.917969 120.785156 93.917969 C 120.535156 93.917969 117.894531 93.21875 114.894531 92.382812 C 94.785156 86.789062 88.429688 83.925781 82.214844 77.730469 C 76.894531 72.4375 74.070312 66.242188 73.355469 58.347656 C 73.105469 55.515625 73.714844 48.824219 74.429688 46.523438 C 74.785156 45.292969 75 45.09375 76.070312 44.925781 C 78.070312 44.59375 80.679688 44.59375 84.105469 44.960938 Z M 64.535156 48.023438 C 64.320312 48.824219 64.144531 52.253906 64.144531 55.785156 C 64.144531 61.410156 64.25 62.511719 65.070312 65.773438 C 67.394531 74.964844 72.714844 82.261719 81.070312 87.789062 C 87.320312 91.917969 92.679688 94.117188 106.355469 98.246094 L 114.355469 100.644531 L 108.355469 106.339844 C 105.035156 109.503906 102.320312 112.066406 102.320312 112.101562 C 102.320312 112.132812 101.035156 111.96875 99.464844 111.734375 C 97.714844 111.5 91.429688 111.300781 83.144531 111.269531 C 66 111.199219 62.394531 110.703125 56.464844 107.671875 C 48.25 103.507812 42.320312 96.214844 39.75 87.089844 C 38.855469 83.824219 38.855469 75.199219 39.785156 71.46875 C 42.5 60.511719 50.320312 52.019531 61.785156 47.558594 C 64.929688 46.324219 65 46.324219 64.535156 48.023438 Z M 175.535156 60.613281 C 179.355469 63.242188 182.179688 66.273438 184.035156 69.769531 C 185.714844 72.867188 186.214844 75.167969 186 78.796875 C 185.75 82.859375 184.785156 85.058594 182.070312 87.753906 C 178.605469 91.21875 175.285156 92.585938 170.394531 92.585938 C 163.464844 92.550781 156.855469 89.585938 150.535156 83.625 L 148.035156 81.261719 L 160.144531 69.972656 C 173.714844 57.28125 172.105469 58.28125 175.535156 60.613281 Z M 151.070312 94.617188 C 158.644531 99.613281 166.964844 101.644531 175.75 100.578125 L 179.285156 100.175781 L 180.964844 101.078125 C 183.535156 102.507812 185.605469 104.441406 186.679688 106.539062 C 187.570312 108.203125 187.679688 108.769531 187.679688 111.734375 C 187.679688 114.730469 187.570312 115.265625 186.644531 117.0625 C 184.714844 120.726562 180.785156 123.523438 175.855469 124.722656 C 173.214844 125.355469 167.035156 125.355469 163.894531 124.753906 C 160.570312 124.089844 156.429688 122.425781 153.25 120.425781 C 150.394531 118.695312 145.070312 113.867188 134.964844 103.941406 L 129.035156 98.113281 L 135.320312 92.382812 L 141.605469 86.65625 L 145.179688 89.886719 C 147.144531 91.652344 149.785156 93.785156 151.070312 94.617188 Z M 151.070312 94.617188 "/>
</g>
</svg>
