<?xml version="1.0" encoding="UTF-8"?>
<svg xmlns="http://www.w3.org/2000/svg" xmlns:xlink="http://www.w3.org/1999/xlink" width="1200px" height="400px" viewBox="0 0 1200 400" version="1.1">
<g id="surface1">
<path style=" stroke:none;fill-rule:nonzero;fill:rgb(0%,0%,0%);fill-opacity:1;" d="M 203.601562 46.5 C 192.5 48.300781 179.300781 52.300781 171.5 56.199219 C 144.699219 69.601562 123.800781 92.699219 114 119.699219 C 111.398438 126.898438 111.300781 127 104 129.398438 C 76.300781 138.800781 51.300781 162.5 41.101562 189 C 36.398438 201.101562 34.699219 210.898438 34.699219 226 C 34.601562 237.601562 35 240.898438 37.300781 249.5 C 42.300781 267.699219 49.898438 280.800781 62.699219 293.101562 C 73.300781 303.300781 83.601562 309.5 97 313.800781 C 109.601562 317.898438 114.800781 318.300781 142.101562 317.800781 C 156.398438 317.5 168 317.601562 167.800781 318 C 167.601562 318.5 157.101562 329.800781 144.398438 343.199219 C 131.699219 356.601562 119.398438 369.699219 117.101562 372.300781 C 109.300781 381.398438 113 382.800781 123.199219 374.699219 C 129.398438 369.699219 167.101562 336.898438 180.800781 324.5 L 187 318.800781 L 193.800781 320.5 C 205.800781 323.5 215.5 327.898438 226 335.101562 C 237.199219 342.800781 240.699219 344.101562 244.398438 341.699219 C 253.800781 335.5 240.398438 319.300781 214.800781 306 L 206 301.398438 L 216.300781 291.199219 L 226.699219 280.898438 L 235.601562 287.800781 C 244.800781 295 250.199219 299.699219 271.101562 318.898438 C 296.601562 342.199219 310 349.601562 331.601562 352.101562 C 354.199219 354.800781 375.199219 348 389.898438 333.101562 C 410.101562 312.800781 411.5 283.300781 393.300781 263 L 389 258.199219 L 394.300781 250.699219 C 401.699219 240.5 404.5 231.601562 404.5 219 C 404.300781 197.601562 392.898438 177.300781 373.300781 164 C 369 161.101562 365.101562 158.398438 364.699219 158 C 364.300781 157.601562 372.398438 149.898438 382.699219 140.800781 C 408.199219 118.398438 416.101562 111 424.699219 101 C 438.101562 85.800781 447.199219 69.699219 445.398438 64.398438 C 443.398438 58.300781 438.800781 55 432.101562 55 C 426.601562 55 416.101562 59.101562 408.601562 64 C 399.898438 69.898438 381.101562 88.101562 364.800781 106.5 C 351 122.101562 335 139.398438 334.101562 139.800781 C 333.699219 139.898438 332.601562 136.800781 331.699219 132.800781 C 323.101562 97.199219 297.898438 67 265.898438 53.898438 C 247.398438 46.300781 222.601562 43.398438 203.601562 46.5 Z M 232.5 69.101562 C 272.199219 73.898438 302.601562 103.300781 312.101562 146 C 315.300781 160.398438 315.5 159.699219 303.300781 172.800781 C 297.300781 179.199219 288.898438 188.101562 284.5 192.699219 L 276.5 201.101562 L 267.101562 190 C 255.101562 175.898438 239.601562 160.5 229.601562 153.101562 C 204.601562 134.398438 174.800781 124 145.898438 124 C 141 124 137 123.699219 137 123.199219 C 137 121.5 146.101562 106.601562 151 100.601562 C 169.898438 76.800781 200 65.199219 232.5 69.101562 Z M 424 76.699219 C 424 80.101562 417.5 88.300781 405.601562 99.699219 C 394 110.898438 387 116.300781 387 114.101562 C 387 112.199219 395.5 98.300781 400.5 92 C 409.300781 81.199219 416.699219 75 421.101562 75 C 423.101562 75 424 75.5 424 76.699219 Z M 171.5 149.898438 C 194.699219 155.699219 213.101562 166.699219 234.5 187.699219 C 241.398438 194.398438 261 216 261 216.800781 C 261 217.199219 252.699219 226 242.601562 236.5 L 224.300781 255.5 L 217.898438 252.398438 C 214.398438 250.601562 206.800781 247.601562 201.101562 245.5 C 178.101562 237.300781 166.398438 231.398438 155.699219 222.5 C 138 207.800781 127.800781 186.398438 128.101562 164.101562 C 128.300781 151.398438 128.898438 148.800781 132 147.800781 C 136.601562 146.398438 162.898438 147.800781 171.5 149.898438 Z M 107.300781 168.699219 C 107.699219 181.5 108.300781 187.199219 109.800781 192.5 C 117.601562 219 135.199219 239.5 161.898438 252.898438 C 165.398438 254.699219 176.800781 259.5 187.300781 263.601562 C 197.800781 267.699219 206.800781 271.398438 207.300781 271.898438 C 208.398438 273 207.601562 274.199219 196 287.398438 C 187.601562 297 187.5 297.101562 184 296.300781 C 182.101562 295.898438 165.699219 295.5 147.5 295.5 L 114.5 295.398438 L 105.5 292.699219 C 77.199219 284 59.300781 261.199219 57.300781 231.601562 C 55.5 204.199219 68.898438 175.800781 90.5 161 C 95.699219 157.398438 105.101562 152 106.101562 152 C 106.5 152 107 159.5 107.300781 168.699219 Z M 355.5 178.800781 C 366.101562 185.601562 372.800781 192.800781 377.601562 202.5 C 385.800781 219 381.898438 237.398438 368.398438 245.898438 C 356.5 253.5 335.699219 252 319.800781 242.398438 C 312.199219 237.800781 294.800781 222.199219 295.199219 220.398438 C 295.601562 218.601562 343.898438 173 345.5 173 C 346.101562 173 350.601562 175.601562 355.5 178.800781 Z M 284.601562 241.898438 C 302.300781 258.800781 318 268.398438 332.5 271.5 C 341.5 273.398438 355 273.398438 362 271.5 C 365 270.699219 368.101562 270 368.699219 270 C 371 270 377.601562 276.800781 380.601562 282.199219 C 383.101562 286.800781 383.5 288.5 383.5 295.5 C 383.5 305.199219 381 311.101562 373.898438 318.199219 C 362.398438 329.699219 344.800781 333.398438 324.800781 328.5 C 313.898438 325.800781 300.800781 317.601562 288 305.5 C 271.601562 290 261.5 281 253.101562 274.199219 L 243.699219 266.601562 L 260.101562 250.800781 C 269.101562 242.199219 276.699219 235.101562 276.898438 235 C 277.101562 235 280.601562 238.101562 284.601562 241.898438 Z M 284.601562 241.898438 "/>
<path style=" stroke:none;fill-rule:nonzero;fill:rgb(0%,0%,0%);fill-opacity:1;" d="M 1112.5 74.898438 C 1101.800781 77.699219 1095.699219 85.601562 1095.601562 96.601562 C 1095.601562 121.898438 1132.398438 127 1139.5 102.699219 C 1141.5 95.601562 1140.398438 89.199219 1136 83.199219 C 1131.300781 76.699219 1120.300781 72.800781 1112.5 74.898438 Z M 1112.5 74.898438 "/>
<path style=" stroke:none;fill-rule:nonzero;fill:rgb(0%,0%,0%);fill-opacity:1;" d="M 892 76.699219 C 887.898438 78.199219 888 75.898438 888 191.5 C 888 290.398438 888.199219 302.800781 889.601562 304.800781 C 891 306.898438 891.800781 307 906 307 C 924.300781 307 924 307.300781 924 293.101562 L 924 283.699219 L 931.300781 290.601562 C 940.300781 299.300781 946.199219 303.101562 956.5 306.699219 C 964.101562 309.398438 965.300781 309.5 982.5 309.5 C 998.601562 309.5 1001.300781 309.300781 1008 307.199219 C 1029.800781 300.300781 1048.601562 284.5 1058.5 264.5 C 1064.601562 252.199219 1066.300781 243.699219 1066.398438 225.5 C 1066.5 208.5 1065.601562 203.300781 1060.601562 190.800781 C 1054.898438 176.800781 1043.101562 162.5 1030.199219 154 C 1000.5 134.5 956.199219 135.800781 930.300781 157 L 924.101562 162 L 923.800781 120.898438 L 923.5 79.800781 L 921.101562 77.898438 C 919.101562 76.199219 917.199219 76 906.101562 76.101562 C 899.199219 76.101562 892.800781 76.398438 892 76.699219 Z M 995.300781 176.300781 C 1024.5 187.5 1037.898438 220.898438 1024.300781 249 C 1015.101562 268.101562 995.101562 279 972 277.699219 C 956.800781 276.800781 946.898438 272.5 937.199219 262.800781 C 913.101562 238.800781 920.601562 193.601562 951.101562 178.601562 C 960.699219 173.898438 965.199219 173 978 173.398438 C 986.300781 173.699219 989.898438 174.300781 995.300781 176.300781 Z M 995.300781 176.300781 "/>
<path style=" stroke:none;fill-rule:nonzero;fill:rgb(0%,0%,0%);fill-opacity:1;" d="M 593 140.601562 C 577.300781 143.300781 566.5 148.101562 557.398438 156.398438 L 551.199219 162 L 550.800781 154.398438 C 550.300781 143.398438 549.699219 143 532 143 C 519.601562 143 518 143.199219 515.601562 145.101562 L 513 147.101562 L 513 225.398438 C 513 300 513.101562 303.800781 514.800781 305.300781 C 516.398438 306.699219 519.101562 307 531.800781 307 C 545.699219 307 547.199219 306.800781 549 305 C 550.898438 303.101562 551 301.699219 551 256.699219 C 551 207.699219 551.300781 204.300781 555.898438 195.199219 C 559 189 566.5 181.601562 572.800781 178.199219 C 589.300781 169.398438 612.101562 172.5 623.5 185.199219 C 634.601562 197.5 635 199.898438 635 256.699219 C 635 301.699219 635.101562 303.101562 637 305 C 638.800781 306.800781 640.300781 307 653.898438 307 C 666.398438 307 669.101562 306.699219 670.5 305.398438 C 671.898438 303.898438 672.101562 298.398438 671.800781 248.601562 C 671.398438 187 671.601562 188.898438 664 173.300781 C 656.5 158.101562 643 147.5 625.300781 142.898438 C 617.800781 141 598.601562 139.601562 593 140.601562 Z M 593 140.601562 "/>
<path style=" stroke:none;fill-rule:nonzero;fill:rgb(0%,0%,0%);fill-opacity:1;" d="M 704.898438 145.101562 C 702.898438 147.101562 702.898438 147.699219 703.199219 204.300781 L 703.5 261.5 L 706.300781 269.5 C 713.601562 290.300781 729.199219 304.300781 750 308.601562 C 761.101562 310.898438 783.300781 310.199219 791.699219 307.199219 C 800.300781 304.199219 808.898438 298.898438 816 292.398438 L 822 286.800781 L 822 294.898438 C 822 306.800781 822.300781 307 840 307 C 852.699219 307 854.199219 306.800781 856 305 C 858 303 858 301.699219 858 225 C 858 148.300781 858 147 856 145 C 854.199219 143.199219 852.699219 143 839.699219 143 C 828.898438 143 824.898438 143.398438 823.398438 144.398438 C 821.601562 145.800781 821.5 147.800781 821 196.699219 L 820.5 247.5 L 817.800781 253.199219 C 810.300781 269.398438 790.800781 278.898438 771 276.101562 C 758.101562 274.300781 749.101562 268.101562 743.5 257 C 739.800781 249.601562 739.101562 239 739 189.300781 L 739 146.101562 L 736.800781 144.601562 C 735 143.300781 731.601562 143 720.800781 143 C 708.199219 143 706.800781 143.199219 704.898438 145.101562 Z M 704.898438 145.101562 "/>
<path style=" stroke:none;fill-rule:nonzero;fill:rgb(0%,0%,0%);fill-opacity:1;" d="M 1101.699219 144.800781 C 1100.101562 146.5 1100 153.5 1100 225.199219 C 1100 300 1100.101562 303.800781 1101.800781 305.300781 C 1104.398438 307.699219 1130.398438 307.800781 1133.800781 305.398438 L 1136 303.898438 L 1136 225.398438 C 1136 148.300781 1136 147 1134 145 C 1132.199219 143.199219 1130.699219 143 1117.699219 143 C 1105 143 1103.101562 143.199219 1101.699219 144.800781 Z M 1101.699219 144.800781 "/>
</g>
</svg>
